<svg xmlns="http://www.w3.org/2000/svg" width="283" height="414" viewBox="0 0 283 414" fill="none">
    <mask id="path-1-outside-1_1304_108" maskUnits="userSpaceOnUse" x="0" y="0" width="283" height="414" fill="black">
        <rect fill="white" width="283" height="414"/>
        <path fill-rule="evenodd" clip-rule="evenodd"
              d="M8 25.334C8 25.334 58.2307 97.3355 58 112.77C58 158.143 99.9052 174.155 128.833 177.839H141.333H153.833C182.761 174.155 224.667 158.143 224.667 112.77C224.436 97.3355 274.667 25.334 274.667 25.334L210.083 45.668C210.083 45.668 202.044 27.5371 191.333 25.334C182.158 23.4467 168.554 32.7396 168.554 32.7396L141.333 5L114.113 32.7396C114.113 32.7396 100.296 22.6441 91.3333 25.334C82.3434 28.0322 76.75 44.0412 76.75 44.0412L8 25.334ZM163.296 234.202C155.85 235.693 150.656 250.801 148.881 256.902V280.893L166.335 272.498L148.881 298.176V340.158L154.948 331.277C149 287.498 196.944 279.495 230.769 273.849L231.607 273.71C232.028 273.639 232.448 273.569 232.864 273.499C224.769 324.363 170.748 335.711 163.296 337.203C155.85 338.693 150.656 353.802 148.881 359.903V385.247L141.334 405L133.787 385.247V302.37C131.673 295.59 126.715 282.58 119.834 281.203C112.381 279.711 58.3604 268.363 50.2652 217.499C50.6197 217.559 50.9759 217.618 51.3338 217.678C51.6745 217.735 52.0167 217.792 52.3604 217.849C86.1852 223.495 134.129 231.498 128.182 275.277L133.787 283.482V177.84H148.881V237.157L154.948 228.276C149 184.497 196.944 176.495 230.769 170.849L231.91 170.658L232.864 170.499C224.769 221.363 170.748 232.71 163.296 234.202ZM116.174 206.999L133.784 214.999V231.999L116.174 206.999ZM133.784 324.501L116.174 316.501L133.784 341.501V324.501Z"/>
    </mask>
    <path fill-rule="evenodd" clip-rule="evenodd"
          d="M8 25.334C8 25.334 58.2307 97.3355 58 112.77C58 158.143 99.9052 174.155 128.833 177.839H141.333H153.833C182.761 174.155 224.667 158.143 224.667 112.77C224.436 97.3355 274.667 25.334 274.667 25.334L210.083 45.668C210.083 45.668 202.044 27.5371 191.333 25.334C182.158 23.4467 168.554 32.7396 168.554 32.7396L141.333 5L114.113 32.7396C114.113 32.7396 100.296 22.6441 91.3333 25.334C82.3434 28.0322 76.75 44.0412 76.75 44.0412L8 25.334ZM163.296 234.202C155.85 235.693 150.656 250.801 148.881 256.902V280.893L166.335 272.498L148.881 298.176V340.158L154.948 331.277C149 287.498 196.944 279.495 230.769 273.849L231.607 273.71C232.028 273.639 232.448 273.569 232.864 273.499C224.769 324.363 170.748 335.711 163.296 337.203C155.85 338.693 150.656 353.802 148.881 359.903V385.247L141.334 405L133.787 385.247V302.37C131.673 295.59 126.715 282.58 119.834 281.203C112.381 279.711 58.3604 268.363 50.2652 217.499C50.6197 217.559 50.9759 217.618 51.3338 217.678C51.6745 217.735 52.0167 217.792 52.3604 217.849C86.1852 223.495 134.129 231.498 128.182 275.277L133.787 283.482V177.84H148.881V237.157L154.948 228.276C149 184.497 196.944 176.495 230.769 170.849L231.91 170.658L232.864 170.499C224.769 221.363 170.748 232.71 163.296 234.202ZM116.174 206.999L133.784 214.999V231.999L116.174 206.999ZM133.784 324.501L116.174 316.501L133.784 341.501V324.501Z"
          fill="#D4E0EE"/>
    <path d="M58 112.77L55.0003 112.725L55 112.748V112.77H58ZM8 25.334L8.78768 22.4392L0.80781 20.2679L5.53957 27.0505L8 25.334ZM128.833 177.839L128.454 180.815L128.643 180.839H128.833V177.839ZM153.833 177.839V180.839H154.024L154.212 180.815L153.833 177.839ZM224.667 112.77H227.667V112.748L227.666 112.725L224.667 112.77ZM274.667 25.334L277.127 27.0505L282.166 19.8277L273.766 22.4725L274.667 25.334ZM210.083 45.668L207.341 46.884L208.427 49.3345L210.984 48.5295L210.083 45.668ZM191.333 25.334L191.938 22.3955L191.938 22.3955L191.333 25.334ZM168.554 32.7396L166.412 34.8407L168.172 36.6336L170.246 35.2168L168.554 32.7396ZM141.333 5L143.475 2.89882L141.333 0.7167L139.192 2.89882L141.333 5ZM114.113 32.7396L112.343 35.1619L114.438 36.6921L116.254 34.8407L114.113 32.7396ZM91.3333 25.334L92.1957 28.2074L92.1957 28.2074L91.3333 25.334ZM76.75 44.0412L75.9623 46.936L78.6599 47.67L79.5821 45.0308L76.75 44.0412ZM148.881 256.902L146 256.064L145.881 256.475V256.902H148.881ZM163.296 234.202L163.885 237.144L163.885 237.144L163.296 234.202ZM148.881 280.893H145.881V285.664L150.181 283.596L148.881 280.893ZM166.335 272.498L168.816 274.185L175.087 264.96L165.035 269.794L166.335 272.498ZM148.881 298.176L146.4 296.489L145.881 297.252V298.176H148.881ZM148.881 340.158H145.881V349.868L151.358 341.85L148.881 340.158ZM154.948 331.277L157.425 332.969L158.076 332.016L157.92 330.873L154.948 331.277ZM230.769 273.849L231.263 276.808L231.263 276.808L230.769 273.849ZM231.607 273.71L232.101 276.669L232.101 276.669L231.607 273.71ZM232.864 273.499L235.827 273.971L236.483 269.851L232.369 270.54L232.864 273.499ZM163.296 337.203L163.885 340.144L163.885 340.144L163.296 337.203ZM148.881 359.903L146 359.064L145.881 359.475V359.903H148.881ZM148.881 385.247L151.683 386.318L151.881 385.801V385.247H148.881ZM141.334 405L138.531 406.071L141.334 413.405L144.136 406.071L141.334 405ZM133.787 385.247H130.787V385.801L130.984 386.318L133.787 385.247ZM133.787 302.37H136.787V301.914L136.651 301.478L133.787 302.37ZM119.834 281.203L120.423 278.261L120.423 278.261L119.834 281.203ZM50.2652 217.499L50.7608 214.54L46.6469 213.851L47.3025 217.971L50.2652 217.499ZM51.3338 217.678L51.8282 214.719L51.8281 214.719L51.3338 217.678ZM52.3604 217.849L52.8543 214.89L52.8543 214.89L52.3604 217.849ZM128.182 275.277L125.209 274.873L125.054 276.016L125.705 276.969L128.182 275.277ZM133.787 283.482L131.309 285.174L136.787 293.192V283.482H133.787ZM133.787 177.84V174.84H130.787V177.84H133.787ZM148.881 177.84H151.881V174.84H148.881V177.84ZM148.881 237.157H145.881V246.868L151.358 238.85L148.881 237.157ZM154.948 228.276L157.425 229.969L158.076 229.016L157.92 227.873L154.948 228.276ZM230.769 170.849L231.263 173.808L231.263 173.808L230.769 170.849ZM231.91 170.658L232.404 173.618L232.405 173.617L231.91 170.658ZM232.864 170.499L235.827 170.97L236.483 166.852L232.369 167.54L232.864 170.499ZM133.784 214.999H136.784V213.067L135.024 212.268L133.784 214.999ZM116.174 206.999L117.414 204.268L107.364 199.702L113.721 208.727L116.174 206.999ZM133.784 231.999L131.331 233.727L136.784 241.467V231.999H133.784ZM116.174 316.501L117.414 313.77L107.364 309.204L113.721 318.229L116.174 316.501ZM133.784 324.501H136.784V322.569L135.024 321.77L133.784 324.501ZM133.784 341.501L131.331 343.229L136.784 350.969V341.501H133.784ZM60.9996 112.815C61.0379 110.253 60.075 106.965 58.7107 103.486C57.3033 99.8978 55.3052 95.7118 52.9418 91.2038C48.2115 82.1809 41.9065 71.6573 35.6263 61.6674C29.3399 51.6676 23.0499 42.1575 18.3337 35.1503C15.975 31.6457 14.0084 28.765 12.6307 26.7594C11.9419 25.7565 11.4002 24.9724 11.0303 24.4383C10.8454 24.1712 10.7034 23.9667 10.6074 23.8286C10.5593 23.7595 10.5228 23.7071 10.4982 23.6718C10.4859 23.6541 10.4766 23.6407 10.4703 23.6316C10.4671 23.6271 10.4647 23.6236 10.4631 23.6213C10.4622 23.6201 10.4616 23.6192 10.4612 23.6186C10.4607 23.6179 10.4604 23.6175 8 25.334C5.53957 27.0505 5.53968 27.0506 5.53997 27.051C5.54033 27.0515 5.54081 27.0522 5.54152 27.0532C5.54293 27.0553 5.5451 27.0584 5.54803 27.0626C5.55388 27.071 5.56274 27.0837 5.57458 27.1007C5.59825 27.1347 5.63379 27.1858 5.68082 27.2534C5.77489 27.3887 5.9149 27.5904 6.09779 27.8544C6.46358 28.3826 7.00086 29.1604 7.68506 30.1565C9.05353 32.1488 11.0094 35.0137 13.3561 38.5005C18.051 45.4759 24.3042 54.9308 30.5467 64.8607C36.7953 74.8005 43.0047 85.1713 47.6278 93.9897C49.9411 98.4023 51.8294 102.374 53.1249 105.677C54.4634 109.09 55.0197 111.429 55.0003 112.725L60.9996 112.815ZM129.212 174.863C115.037 173.058 97.8662 168.244 84.3202 158.502C70.8969 148.848 61 134.358 61 112.77H55C55 136.555 66.0557 152.757 80.817 163.373C95.4556 173.901 113.702 178.936 128.454 180.815L129.212 174.863ZM141.333 174.839H128.833V180.839H141.333V174.839ZM153.833 174.839H141.333V180.839H153.833V174.839ZM221.667 112.77C221.667 134.358 211.77 148.848 198.346 158.502C184.8 168.244 167.63 173.058 153.454 174.863L154.212 180.815C168.965 178.936 187.211 173.901 201.85 163.373C216.611 152.757 227.667 136.555 227.667 112.77H221.667ZM274.667 25.334C272.206 23.6175 272.206 23.6179 272.205 23.6186C272.205 23.6192 272.204 23.6201 272.203 23.6213C272.202 23.6236 272.199 23.6271 272.196 23.6316C272.19 23.6407 272.181 23.6541 272.168 23.6718C272.144 23.7071 272.107 23.7595 272.059 23.8286C271.963 23.9667 271.821 24.1712 271.636 24.4383C271.266 24.9724 270.725 25.7565 270.036 26.7594C268.658 28.765 266.692 31.6457 264.333 35.1503C259.617 42.1575 253.327 51.6676 247.04 61.6674C240.76 71.6573 234.455 82.1809 229.725 91.2038C227.361 95.7118 225.363 99.8978 223.956 103.486C222.592 106.965 221.629 110.253 221.667 112.815L227.666 112.725C227.647 111.429 228.203 109.09 229.542 105.677C230.837 102.374 232.725 98.4023 235.039 93.9897C239.662 85.1713 245.871 74.8005 252.12 64.8607C258.362 54.9308 264.616 45.4759 269.31 38.5005C271.657 35.0137 273.613 32.1488 274.981 30.1565C275.666 29.1604 276.203 28.3826 276.569 27.8544C276.752 27.5904 276.892 27.3887 276.986 27.2534C277.033 27.1858 277.068 27.1347 277.092 27.1007C277.104 27.0837 277.113 27.071 277.119 27.0626C277.121 27.0584 277.124 27.0553 277.125 27.0532C277.126 27.0522 277.126 27.0515 277.127 27.051C277.127 27.0506 277.127 27.0505 274.667 25.334ZM210.984 48.5295L275.567 28.1955L273.766 22.4725L209.182 42.8064L210.984 48.5295ZM190.729 28.2725C192.702 28.6783 194.748 29.868 196.788 31.6824C198.812 33.4822 200.668 35.7523 202.263 38.0417C203.85 40.3205 205.128 42.5465 206.01 44.2078C206.45 45.0358 206.788 45.717 207.014 46.1859C207.127 46.4203 207.211 46.6011 207.266 46.7203C207.294 46.7799 207.314 46.824 207.326 46.8517C207.332 46.8655 207.337 46.8752 207.339 46.8806C207.34 46.8833 207.341 46.885 207.341 46.8856C207.342 46.8858 207.342 46.8859 207.341 46.8856C207.341 46.8855 207.341 46.8851 207.341 46.885C207.341 46.8846 207.341 46.884 210.083 45.668C212.826 44.4519 212.825 44.4512 212.825 44.4505C212.825 44.4502 212.825 44.4493 212.824 44.4487C212.824 44.4473 212.823 44.4457 212.822 44.4438C212.82 44.4399 212.818 44.435 212.816 44.429C212.81 44.417 212.803 44.4007 212.794 44.3801C212.775 44.339 212.749 44.2811 212.715 44.2073C212.647 44.0598 212.548 43.849 212.42 43.5833C212.164 43.0521 211.79 42.2996 211.309 41.3934C210.349 39.5863 208.948 37.1419 207.186 34.6126C205.432 32.0939 203.271 29.4182 200.775 27.1988C198.296 24.994 195.32 23.0912 191.938 22.3955L190.729 28.2725ZM168.554 32.7396C170.246 35.2168 170.245 35.2171 170.245 35.2174C170.245 35.2174 170.244 35.2177 170.244 35.2177C170.244 35.2179 170.244 35.2179 170.244 35.2178C170.244 35.2176 170.246 35.2169 170.248 35.2155C170.251 35.2129 170.258 35.2081 170.269 35.2012C170.289 35.1875 170.322 35.1653 170.367 35.1354C170.457 35.0756 170.595 34.9849 170.777 34.8682C171.141 34.6347 171.678 34.2979 172.353 33.8972C173.708 33.0933 175.6 32.0441 177.754 31.0556C182.254 28.9902 187.165 27.5394 190.729 28.2725L191.938 22.3955C186.327 21.2413 179.847 23.4932 175.251 25.6025C172.857 26.7013 170.775 27.8573 169.292 28.7369C168.549 29.1779 167.951 29.5524 167.535 29.8197C167.327 29.9534 167.164 30.0605 167.05 30.1359C166.993 30.1736 166.949 30.2034 166.917 30.2247C166.901 30.2353 166.889 30.2438 166.879 30.2501C166.875 30.2533 166.871 30.2559 166.868 30.2579C166.866 30.2589 166.865 30.2598 166.864 30.2605C166.864 30.2609 166.863 30.2613 166.863 30.2615C166.862 30.2619 166.861 30.2623 168.554 32.7396ZM139.192 7.10118L166.412 34.8407L170.695 30.6384L143.475 2.89882L139.192 7.10118ZM116.254 34.8407L143.475 7.10118L139.192 2.89882L111.972 30.6384L116.254 34.8407ZM92.1957 28.2074C93.7612 27.7375 95.7396 27.7773 98.0225 28.2848C100.281 28.7869 102.624 29.6989 104.79 30.7345C106.944 31.7647 108.847 32.8806 110.215 33.7424C110.896 34.1717 111.439 34.5342 111.806 34.786C111.99 34.9119 112.13 35.0098 112.221 35.0743C112.266 35.1066 112.3 35.1305 112.32 35.1453C112.33 35.1527 112.338 35.1579 112.341 35.1607C112.343 35.1621 112.344 35.1629 112.345 35.1631C112.345 35.1632 112.345 35.1631 112.345 35.1629C112.344 35.1628 112.344 35.1626 112.344 35.1625C112.344 35.1622 112.343 35.1619 114.113 32.7396C115.883 30.3172 115.882 30.3168 115.882 30.3164C115.881 30.3162 115.881 30.3157 115.88 30.3153C115.879 30.3145 115.878 30.3135 115.876 30.3124C115.873 30.3101 115.869 30.3073 115.864 30.3038C115.855 30.2969 115.842 30.2877 115.826 30.276C115.794 30.2528 115.748 30.2204 115.69 30.1793C115.575 30.0973 115.409 29.981 115.197 29.836C114.774 29.5463 114.167 29.1411 113.413 28.666C111.91 27.7189 109.799 26.479 107.378 25.3216C104.969 24.1696 102.178 23.0621 99.3247 22.4278C96.4962 21.799 93.3866 21.5855 90.4709 22.4606L92.1957 28.2074ZM76.75 44.0412C79.5821 45.0308 79.5819 45.0313 79.5817 45.0318C79.5817 45.0319 79.5815 45.0323 79.5815 45.0325C79.5813 45.0329 79.5813 45.033 79.5814 45.0328C79.5814 45.0326 79.5819 45.0313 79.5826 45.0292C79.5842 45.0249 79.587 45.0168 79.5912 45.0051C79.5996 44.9817 79.6133 44.9437 79.6322 44.892C79.67 44.7887 79.7287 44.6309 79.8077 44.4256C79.9658 44.0148 80.2046 43.4158 80.5195 42.6848C81.1518 41.2174 82.0795 39.2453 83.2642 37.2069C84.4553 35.1575 85.863 33.1163 87.4357 31.4629C89.0236 29.7937 90.6301 28.6772 92.1957 28.2074L90.4709 22.4606C87.5415 23.3398 85.0777 25.2363 83.0884 27.3276C81.0839 29.4348 79.4077 31.9018 78.0767 34.192C76.7393 36.4931 75.7067 38.6919 75.0093 40.3105C74.6594 41.1226 74.391 41.7953 74.2081 42.2705C74.1166 42.5083 74.0463 42.697 73.9978 42.8296C73.9735 42.8958 73.9547 42.9481 73.9414 42.9854C73.9347 43.0041 73.9294 43.019 73.9255 43.0301C73.9235 43.0356 73.9219 43.0402 73.9206 43.0438C73.92 43.0456 73.9194 43.0472 73.919 43.0485C73.9187 43.0492 73.9185 43.05 73.9183 43.0503C73.9181 43.051 73.9178 43.0517 76.75 44.0412ZM7.21232 28.2287L75.9623 46.936L77.5376 41.1465L8.78768 22.4392L7.21232 28.2287ZM151.761 257.74C152.627 254.767 154.305 249.678 156.625 245.205C157.787 242.965 159.051 240.994 160.374 239.536C161.719 238.053 162.907 237.34 163.885 237.144L162.707 231.261C159.962 231.81 157.709 233.544 155.93 235.504C154.129 237.489 152.589 239.956 151.299 242.442C148.717 247.421 146.911 252.936 146 256.064L151.761 257.74ZM151.881 280.893V256.902H145.881V280.893H151.881ZM165.035 269.794L147.581 278.189L150.181 283.596L167.636 275.202L165.035 269.794ZM151.362 299.862L168.816 274.185L163.854 270.812L146.4 296.489L151.362 299.862ZM151.881 340.158V298.176H145.881V340.158H151.881ZM152.471 329.585L146.404 338.466L151.358 341.85L157.425 332.969L152.471 329.585ZM230.275 270.89C213.487 273.692 192.525 277.161 176.542 285.611C168.493 289.866 161.509 295.479 156.955 303.088C152.373 310.742 150.409 320.154 151.975 331.681L157.92 330.873C156.513 320.51 158.311 312.504 162.103 306.169C165.923 299.788 171.924 294.839 179.346 290.915C194.304 283.007 214.226 279.652 231.263 276.808L230.275 270.89ZM231.113 270.75L230.275 270.89L231.263 276.808L232.101 276.669L231.113 270.75ZM232.369 270.54C231.953 270.61 231.534 270.68 231.113 270.75L232.101 276.669C232.523 276.598 232.942 276.528 233.36 276.458L232.369 270.54ZM163.885 340.144C167.718 339.377 183.497 336.085 199.396 326.43C215.345 316.744 231.6 300.527 235.827 273.971L229.902 273.028C226.033 297.335 211.23 312.224 196.282 321.301C181.284 330.409 166.326 333.536 162.707 334.261L163.885 340.144ZM151.761 360.741C152.627 357.767 154.305 352.679 156.625 348.205C157.787 345.966 159.051 343.994 160.374 342.536C161.719 341.054 162.907 340.34 163.885 340.144L162.707 334.261C159.962 334.811 157.709 336.544 155.93 338.505C154.129 340.49 152.589 342.956 151.299 345.443C148.717 350.421 146.911 355.937 146 359.064L151.761 360.741ZM151.881 385.247V359.903H145.881V385.247H151.881ZM144.136 406.071L151.683 386.318L146.079 384.176L138.531 403.929L144.136 406.071ZM130.984 386.318L138.531 406.071L144.136 403.929L136.589 384.176L130.984 386.318ZM130.787 302.37V385.247H136.787V302.37H130.787ZM119.245 284.144C120.144 284.324 121.228 284.943 122.461 286.221C123.678 287.483 124.863 289.206 125.973 291.213C128.194 295.226 129.89 299.952 130.923 303.263L136.651 301.478C135.569 298.009 133.73 292.84 131.223 288.308C129.97 286.043 128.492 283.831 126.779 282.055C125.08 280.294 122.964 278.77 120.423 278.261L119.245 284.144ZM47.3025 217.971C51.5291 244.527 67.7841 260.744 83.7333 270.43C99.6329 280.085 115.411 283.377 119.245 284.144L120.423 278.261C116.803 277.536 101.845 274.409 86.8476 265.301C71.8996 256.224 57.0965 241.335 53.2279 217.028L47.3025 217.971ZM51.8281 214.719C51.4705 214.659 51.1147 214.6 50.7608 214.54L49.7696 220.458C50.1246 220.517 50.4813 220.577 50.8396 220.637L51.8281 214.719ZM52.8543 214.89C52.5107 214.833 52.1686 214.776 51.8282 214.719L50.8395 220.637C51.1804 220.694 51.5228 220.751 51.8665 220.808L52.8543 214.89ZM131.154 275.681C132.72 264.154 130.756 254.742 126.175 247.088C121.621 239.479 114.636 233.866 106.588 229.611C90.6049 221.161 69.6421 217.692 52.8543 214.89L51.8665 220.808C68.9035 223.652 88.8251 227.007 103.784 234.915C111.206 238.839 117.206 243.787 121.026 250.169C124.818 256.504 126.617 264.51 125.209 274.873L131.154 275.681ZM136.264 281.789L130.659 273.585L125.705 276.969L131.309 285.174L136.264 281.789ZM130.787 177.84V283.482H136.787V177.84H130.787ZM148.881 174.84H133.787V180.84H148.881V174.84ZM151.881 237.157V177.84H145.881V237.157H151.881ZM152.471 226.584L146.404 235.465L151.358 238.85L157.425 229.969L152.471 226.584ZM230.275 167.89C213.487 170.692 192.525 174.161 176.542 182.611C168.493 186.866 161.509 192.479 156.955 200.087C152.373 207.742 150.409 217.153 151.975 228.68L157.92 227.873C156.513 217.51 158.311 209.504 162.103 203.169C165.923 196.787 171.924 191.839 179.346 187.915C194.304 180.007 214.226 176.652 231.263 173.808L230.275 167.89ZM231.416 167.699L230.275 167.89L231.263 173.808L232.404 173.618L231.416 167.699ZM232.369 167.54L231.415 167.7L232.405 173.617L233.359 173.458L232.369 167.54ZM163.885 237.144C167.718 236.377 183.497 233.085 199.396 223.429C215.345 213.744 231.6 197.527 235.827 170.97L229.902 170.027C226.033 194.335 211.23 209.223 196.282 218.301C181.284 227.408 166.326 230.536 162.707 231.261L163.885 237.144ZM135.024 212.268L117.414 204.268L114.933 209.73L132.543 217.73L135.024 212.268ZM136.784 231.999V214.999H130.784V231.999H136.784ZM113.721 208.727L131.331 233.727L136.236 230.271L118.626 205.271L113.721 208.727ZM114.933 319.233L132.543 327.233L135.024 321.77L117.414 313.77L114.933 319.233ZM136.236 339.773L118.626 314.774L113.721 318.229L131.331 343.229L136.236 339.773ZM130.784 324.501V341.501H136.784V324.501H130.784Z"
          fill="#2F4162" mask="url(#path-1-outside-1_1304_108)"/>
</svg>